<?xml version="1.0" encoding="UTF-8"?>
<svg width="5032px" height="2052px" viewBox="0 0 5032 2052" version="1.1" xmlns="http://www.w3.org/2000/svg" xmlns:xlink="http://www.w3.org/1999/xlink">
    <!-- Generator: Sketch 53 (72520) - https://sketchapp.com -->
    <title>liine-logo-purple</title>
    <desc>Created with Sketch.</desc>
    <g id="Artboard" stroke="none" stroke-width="1" fill="none" fill-rule="evenodd">
        <g id="liine-logo-purple" transform="translate(392.000000, 439.000000)" fill="#6A3CE9" fill-rule="nonzero">
            <g id="Group" transform="translate(1608.000000, 2.000000)">
                <path d="M234.337891,1165.80472 C149.287668,1163.82467 88.985328,1145.56429 53.4033724,1110.91355 C17.8214169,1076.31782 0.00294148662,1022.44418 0.00294148662,949.237625 L0.00294148662,23.7330032 L137.93114,0 L137.93114,927.017154 C137.93114,949.787637 139.910971,968.543035 143.870632,983.365849 C147.802795,998.188663 154.264743,1010.06891 163.146483,1018.9516 C172.05572,1027.86179 183.907206,1034.51693 198.728438,1038.97203 C213.54967,1043.42712 231.835605,1047.1397 253.613742,1050.08226 L234.337891,1165.80472 Z" id="Path"></path>
                <path d="M476.069708,240.272594 C451.349323,240.272594 430.313623,232.104921 413.045101,215.797075 C395.749081,199.489229 387.087322,177.488763 387.087322,149.795676 C387.087322,122.130089 395.721583,100.102122 413.045101,83.7942766 C430.341121,67.4864308 451.349323,59.3187576 476.069708,59.3187576 C500.762596,59.3187576 521.798296,67.4864308 539.094316,83.7942766 C556.390336,100.102122 565.052095,122.130089 565.052095,149.795676 C565.052095,177.488763 556.390336,199.489229 539.094316,215.797075 C521.770798,232.132422 500.762596,240.272594 476.069708,240.272594 Z M545.748746,1150.9819 L407.820548,1150.9819 L407.820548,379.70055 L545.748746,379.70055 L545.748746,1150.9819 Z" id="Shape"></path>
                <path d="M851.247607,240.272594 C826.527222,240.272594 805.491522,232.104921 788.223,215.797075 C770.899482,199.489229 762.265221,177.488763 762.265221,149.795676 C762.265221,122.130089 770.899482,100.102122 788.223,83.7942766 C805.51902,67.4864308 826.527222,59.3187576 851.247607,59.3187576 C875.940495,59.3187576 896.976195,67.4864308 914.272215,83.7942766 C931.568235,100.102122 940.229994,122.130089 940.229994,149.795676 C940.229994,177.488763 931.568235,199.489229 914.272215,215.797075 C896.976195,232.132422 875.967992,240.272594 851.247607,240.272594 Z M920.954143,1150.9819 L783.025945,1150.9819 L783.025945,379.70055 L920.954143,379.70055 L920.954143,1150.9819 Z" id="Shape"></path>
                <path d="M1158.23134,401.948522 C1189.85364,394.055855 1231.87004,385.640676 1284.28056,376.730487 C1336.66357,367.820298 1396.99341,363.392704 1465.21508,363.392704 C1526.50733,363.392704 1577.40548,372.055388 1617.96451,389.353255 C1658.49604,406.651122 1690.86077,430.879135 1715.11369,462.037296 C1739.33912,493.195456 1756.38766,530.513748 1766.28681,574.01967 C1776.15847,617.553093 1781.10805,665.486609 1781.10805,717.902721 L1781.10805,1151.0094 L1643.17985,1151.0094 L1643.17985,747.57585 C1643.17985,700.109843 1639.96262,659.573984 1633.52817,625.940771 C1627.09372,592.335058 1616.47963,565.136982 1601.6309,544.374042 C1586.80967,523.611101 1567.01137,508.540782 1542.31848,499.135582 C1517.59809,489.757884 1486.93822,485.055284 1450.36635,485.055284 C1435.54511,485.055284 1420.20143,485.577795 1404.39028,486.540315 C1388.55163,487.530336 1373.48292,488.767863 1359.15665,490.252894 C1344.80288,491.737926 1331.96148,493.470462 1320.60495,495.450504 C1309.22092,497.430546 1301.08162,498.915578 1296.13204,499.905599 L1296.13204,1151.0369 L1158.20384,1151.0369 L1158.20384,401.948522 L1158.23134,401.948522 Z" id="Path"></path>
                <path d="M1966.46969,766.826258 C1966.46969,698.597311 1976.34134,639.031048 1996.13965,588.099969 C2015.91046,537.196389 2042.11571,494.900493 2074.72792,461.29478 C2107.34013,427.689068 2144.92942,402.471033 2187.44078,385.640676 C2229.92465,368.83782 2273.45342,360.422641 2317.94461,360.422641 C2421.74823,360.422641 2501.32642,392.818328 2556.70668,457.582201 C2612.05945,522.346074 2639.74958,620.990666 2639.74958,753.488475 C2639.74958,759.428601 2639.74958,767.101264 2639.74958,776.478962 C2639.74958,785.884162 2639.22712,794.519345 2638.26471,802.439513 L2110.28238,802.439513 C2116.22187,882.521211 2139.42989,943.3525 2179.98892,984.878381 C2220.52045,1026.40426 2283.79254,1047.1672 2369.83267,1047.1672 C2418.25603,1047.1672 2459.06254,1042.95961 2492.1972,1034.57193 C2525.30437,1026.18426 2550.27224,1018.01658 2567.1008,1010.09642 L2586.37665,1125.79137 C2569.54809,1134.70156 2540.1531,1144.10676 2498.1367,1153.97947 C2456.09279,1163.85218 2408.41187,1168.80228 2355.01144,1168.80228 C2287.7522,1168.80228 2229.70466,1158.65457 2180.75885,1138.38664 C2131.81304,1118.14621 2091.52899,1090.17811 2059.87919,1054.59236 C2028.2294,1019.0066 2004.74641,976.710708 1989.43022,927.78717 C1974.14153,878.808632 1966.46969,825.182495 1966.46969,766.826258 Z M2495.93688,691.172154 C2496.8993,628.883333 2481.33563,577.704748 2449.21838,537.663899 C2417.07363,497.62305 2372.82992,477.602626 2316.48724,477.602626 C2284.83745,477.602626 2256.89984,483.790257 2232.70191,496.138019 C2208.47648,508.513281 2187.96324,524.573622 2171.16217,544.346541 C2154.33361,564.146961 2141.24473,586.862442 2131.86804,612.575487 C2122.46384,638.288533 2116.30437,664.496588 2113.33462,691.199654 L2495.93688,691.199654 L2495.93688,691.172154 Z" id="Shape"></path>
            </g>
            <g id="Group">
                <path d="M1035.3418,0 L125.655083,0 C56.5461618,0 0.494813278,56.0098628 0.494813278,125.129002 L0.494813278,701.277561 C0.494813278,770.369217 56.5186722,826.406562 125.655083,826.406562 L156.965768,826.406562 L156.965768,981.07953 C156.965768,1013.0145 182.860996,1038.90325 214.803942,1038.90325 C230.033195,1038.90325 244.657676,1032.91201 255.4611,1022.19374 L453.578838,826.379079 L1035.36929,826.379079 C1104.47822,826.379079 1160.52956,770.369217 1160.52956,701.250078 L1160.52956,125.129002 C1160.50207,56.0098628 1104.47822,0 1035.3418,0 Z M885.495851,345.513246 C876.066909,345.513246 867.050311,343.754349 858.775934,340.538866 L738.371369,451.871523 C740.020747,458.027661 740.900415,464.486109 740.900415,471.136937 C740.900415,512.086248 707.692946,545.257938 666.760892,545.257938 C625.801349,545.257938 592.621369,512.058765 592.621369,471.136937 C592.621369,467.536696 592.868776,463.99142 593.363589,460.528592 L534.45332,419.524316 C522.467842,427.851592 507.89834,432.743523 492.174274,432.743523 C480.985996,432.743523 470.40249,430.270074 460.891079,425.84535 L344.857365,533.110558 C347.963693,541.300421 349.66805,550.149869 349.66805,559.439042 C349.66805,600.388352 316.460581,633.560042 275.528527,633.560042 C234.568983,633.560042 201.389004,600.36087 201.389004,559.439042 C201.389004,518.517213 234.596473,485.318041 275.528527,485.318041 C286.194502,485.318041 296.338174,487.571627 305.49222,491.639075 L422.323133,383.60435 C419.519191,375.799246 418.007261,367.389522 418.007261,358.622522 C418.007261,317.673211 451.21473,284.501521 492.146784,284.501521 C533.078838,284.501521 566.286307,317.700694 566.286307,358.622522 C566.286307,362.580039 565.983921,366.455108 565.379149,370.247729 L623.657158,410.784798 C635.807573,402.100246 650.679461,396.988453 666.733402,396.988453 C679.955913,396.988453 692.381224,400.451281 703.129668,406.524971 L817.431535,300.82628 C813.500519,291.784452 811.328838,281.835693 811.328838,271.337279 C811.328838,230.387968 844.536307,197.216278 885.468361,197.216278 C926.400415,197.216278 959.607884,230.415451 959.607884,271.337279 C959.635373,312.314073 926.427905,345.513246 885.495851,345.513246 Z" id="Bubble_1"></path>
                <path d="M902.044606,997.431771 L1073.38745,1154.35832 C1087.35218,1167.13781 1105.24793,1174.09095 1124.05083,1174.09095 C1125.1779,1174.09095 1126.30498,1174.06346 1127.43205,1174.0085 C1147.47199,1173.12905 1166,1164.49946 1179.55239,1149.71374 C1192.88485,1135.14788 1199.89471,1116.26722 1199.23496,1096.5346 L1195.96369,995.782806 C1268.23392,984.927116 1323.81795,922.458805 1323.81795,847.238493 L1323.81795,421.585523 C1323.81795,347.629418 1270.07573,286.040555 1199.59232,273.673314 L1199.59232,337.433315 C1235.49378,348.563832 1261.6639,382.065315 1261.6639,421.585523 L1261.6639,847.238493 C1261.6639,895.800529 1222.16131,935.293253 1173.58714,935.293253 L1131.83039,935.293253 L1137.13589,1098.54084 C1137.24585,1101.9487 1136.03631,1105.21915 1133.72718,1107.72008 C1130.56587,1111.18291 1126.71732,1111.8425 1124.71058,1111.92495 C1122.70384,1112.00739 1118.8278,1111.6776 1115.36411,1108.51708 L926.180498,935.26577 L479.639004,935.26577 C456.850104,935.26577 436.040456,926.553736 420.398859,912.317667 L376.058091,955.850357 C403.025415,981.574219 439.504149,997.404288 479.639004,997.404288 L902.044606,997.404288 L902.044606,997.431771 Z" id="Path"></path>
            </g>
        </g>
    </g>
</svg>